<svg xmlns="http://www.w3.org/2000/svg" viewBox="0 0 563.52 313.41"><defs><style>.cls-1{font-size:86.31px;fill:#0a0300;font-family:IndieFlower, Indie Flower;letter-spacing:0.03em;}.cls-2{fill:none;}.cls-2,.cls-3,.cls-5{stroke:#000;}.cls-2,.cls-3,.cls-5,.cls-7,.cls-8{stroke-miterlimit:10;}.cls-3{fill:#ffedf0;}.cls-4{fill:#0a0600;}.cls-5{fill:#ffe334;}.cls-6{fill:#030100;}.cls-7{fill:#606060;}.cls-7,.cls-8{stroke:#0c0400;}.cls-8{fill:#ffcacf;}</style></defs><title>sketchit</title><g id="Layer_1" data-name="Layer 1"><text class="cls-1" transform="translate(11.77 271.26)">Sketchit</text><path class="cls-2" d="M138,559.5H393s180.47,0,74.54-35.31c0,0-54.93-23.54,51-27.46" transform="translate(-138 -280.39)"/><path class="cls-3" d="M519.38,495l25.45-71.73s2.31,20.83,20.82,2.32c0,0-6.94,20.82,16.2,13.88,0,0-18.51,18.51,4.62,16.2Z" transform="translate(-138 -280.39)"/><path class="cls-4" d="M527.16,469.23s13.86.91,15.4,12.61l-24,12.33Z" transform="translate(-138 -280.39)"/><path class="cls-5" d="M544.83,423.23,648.94,302.92s32.39,6.94,34.71,27.77L586.47,455.63s-23.13,4.62-4.62-16.2c0,0-23.14,2.31-16.2-13.88C565.65,425.55,549.45,441.74,544.83,423.23Z" transform="translate(-138 -280.39)"/><line class="cls-6" x1="427.65" y1="145.16" x2="522.51" y2="27.16"/><line class="cls-6" x1="538.71" y1="36.41" x2="443.85" y2="159.04"/><path class="cls-7" d="M654.73,294.82s25.45,0,37,25.46l-9.26,9.25s-9.25-23.14-34.7-27.76Z" transform="translate(-138 -280.39)"/><path class="cls-8" d="M666.29,280.94s32.4,6.94,34.71,27.77l-9.25,10s-11.57-26.16-37-23.85Z" transform="translate(-138 -280.39)"/></g></svg>